<svg width="64" height="72" viewBox="0 0 64 72" fill="none" xmlns="http://www.w3.org/2000/svg">
<path d="M64 20H52.76C50.96 16.88 48.48 14.2 45.48 12.16L52 5.64L46.36 0L37.68 8.68C35.84 8.24 33.96 8 32 8C30.04 8 28.16 8.24 26.36 8.68L17.64 0L12 5.64L18.48 12.16C15.52 14.2 13.04 16.88 11.24 20H0V28H8.36C8.16 29.32 8 30.64 8 32V36H0V44H8V48C8 49.36 8.16 50.68 8.36 52H0V60H11.24C15.4 67.16 23.12 72 32 72C40.88 72 48.6 67.16 52.76 60H64V52H55.64C55.84 50.68 56 49.36 56 48V44H64V36H56V32C56 30.64 55.84 29.32 55.64 28H64V20ZM40 52H24V44H40V52ZM40 36H24V28H40V36Z" fill="#B4BEE7"/>
</svg>
